#!OML:ASF F:\VICON\USERDATA\INSTALL\rory3\rory3.ASF
:FULLY-SPECIFIED
:DEGREES
295
root 4.49572 17.134 0.42834 10.982 -2.66287 -1.64764
lowerback -0.898973 -1.88667 7.4772
upperback -3.73065 -2.41988 0.746742
thorax -3.65064 -1.4322 -3.34678
lowerneck -10.4639 2.43708 -0.830043
upperneck 46.3893 4.36115 -0.849095
head 19.8569 1.38712 0.516581
rclavicle 2.51463e-014 3.97569e-015
rhumerus -3.43059 -11.2011 -18.5646
rradius 115.35
rwrist -60.9406
rhand -2.38563 -42.6478
rfingers 7.12502
rthumb 23.3035 -71.2574
lclavicle 2.51463e-014 3.97569e-015
lhumerus 30.4626 25.0705 9.57569
lradius 81.9716
lwrist 54.7854
lhand -27.9057 -28.855
lfingers 7.12502
lthumb -1.29481 1.12084
rfemur -40.3415 7.07566 9.29327
rtibia 65.7832
rfoot 5.88684 -10.8685
rtoes -17.5035
lfemur -25.0628 0.902999 -29.0507
ltibia 33.6869
lfoot -18.037 14.2944
ltoes 10.7449
296
root 4.49766 17.1273 0.423507 10.9255 -2.71067 -1.52381
lowerback -0.739721 -1.88571 7.33944
upperback -3.72343 -2.40768 0.702729
thorax -3.72657 -1.42477 -3.31065
lowerneck -10.4223 2.34956 -0.895776
upperneck 46.5026 4.22793 -0.822303
head 19.9211 1.32367 0.516854
rclavicle -2.09221e-014 2.70347e-014
rhumerus -3.57775 -10.7628 -19.0733
rradius 115.231
rwrist -60.4764
rhand -1.46148 -42.6614
rfingers 7.12502
rthumb 24.1898 -71.1559
lclavicle -2.09221e-014 2.70347e-014
lhumerus 30.6248 24.7699 10.0719
lradius 82.2951
lwrist 54.5533
lhand -27.168 -27.4115
lfingers 7.12502
lthumb -0.582387 2.56745
rfemur -40.677 7.01265 9.36412
rtibia 66.0708
rfoot 5.95976 -10.2336
rtoes -17.919
lfemur -25.0729 0.862211 -29.2021
ltibia 33.7877
lfoot -18.058 14.34
ltoes 10.8632
297
root 4.49937 17.1254 0.414085 10.9018 -2.66208 -1.61842
lowerback -0.50878 -1.91233 7.43011
upperback -3.72858 -2.4202 0.730664
thorax -3.86786 -1.43787 -3.32297
lowerneck -10.4007 2.33212 -0.910202
upperneck 46.5386 4.18356 -0.780268
head 19.9374 1.30828 0.532017
rclavicle -8.53035e-014 1.86858e-014
rhumerus -3.66912 -10.3799 -19.5697
rradius 115.087
rwrist -60.0654
rhand -0.186935 -42.394
rfingers 7.12502
rthumb 25.4113 -70.7204
lclavicle -8.53035e-014 1.86858e-014
lhumerus 30.558 24.3653 10.2496
lradius 82.6087
lwrist 54.439
lhand -27.0114 -26.838
lfingers 7.12502
lthumb -0.43112 3.14134
rfemur -41.0275 6.9972 9.69807
rtibia 66.3033
rfoot 5.74496 -9.65344
rtoes -17.8504
lfemur -25.1676 0.790687 -29.0987
ltibia 33.9026
lfoot -18.0097 14.4176
ltoes 10.8784
298
root 4.50031 17.1245 0.408798 10.864 -2.64183 -1.73557
lowerback -0.36228 -1.93657 7.54427
upperback -3.70183 -2.43745 0.766263
thorax -3.92935 -1.4506 -3.34402
lowerneck -10.3179 2.35858 -0.988367
upperneck 46.573 4.23014 -0.739966
head 19.9327 1.31765 0.573614
rclavicle 4.19933e-014 1.98785e-015
rhumerus -3.77003 -10.0116 -19.9803
rradius 114.994
rwrist -60.0245
rhand 0.223664 -42.399
rfingers 7.12502
rthumb 25.8046 -70.6688
lclavicle 4.19933e-014 1.98785e-015
lhumerus 30.3962 24.0362 10.3885
lradius 82.9892
lwrist 54.6481
lhand -27.1544 -27.7269
lfingers 7.12502
lthumb -0.569233 2.25208
rfemur -41.3132 7.05254 10.0818
rtibia 66.4896
rfoot 5.39859 -9.1595
rtoes -18.1303
lfemur -25.2327 0.755677 -28.9737
ltibia 34.0239
lfoot -17.9806 14.5108
ltoes 10.7908
